<svg xmlns="http://www.w3.org/2000/svg" xmlns:xlink="http://www.w3.org/1999/xlink" width="50" zoomAndPan="magnify" viewBox="0 0 375 374.999991" height="50" preserveAspectRatio="xMidYMid meet" version="1.0"><defs><clipPath id="id1"><path d="M 25 31 L 339 31 L 339 338 L 25 338 Z M 25 31 " clip-rule="nonzero"/></clipPath><clipPath id="id2"><path d="M 88.421875 -23.78125 L 387.464844 99.53125 L 265.007812 396.496094 L -34.035156 273.1875 Z M 88.421875 -23.78125 " clip-rule="nonzero"/></clipPath><clipPath id="id3"><path d="M 88.421875 -23.78125 L 387.464844 99.53125 L 265.007812 396.496094 L -34.035156 273.1875 Z M 88.421875 -23.78125 " clip-rule="nonzero"/></clipPath><clipPath id="id4"><path d="M 135 138 L 231 138 L 231 232 L 135 232 Z M 135 138 " clip-rule="nonzero"/></clipPath><clipPath id="id5"><path d="M 88.421875 -23.78125 L 387.464844 99.53125 L 265.007812 396.496094 L -34.035156 273.1875 Z M 88.421875 -23.78125 " clip-rule="nonzero"/></clipPath><clipPath id="id6"><path d="M 88.421875 -23.78125 L 387.464844 99.53125 L 265.007812 396.496094 L -34.035156 273.1875 Z M 88.421875 -23.78125 " clip-rule="nonzero"/></clipPath><clipPath id="id7"><path d="M 53 55 L 308 55 L 308 321 L 53 321 Z M 53 55 " clip-rule="nonzero"/></clipPath><clipPath id="id8"><path d="M 88.421875 -23.78125 L 387.464844 99.53125 L 265.007812 396.496094 L -34.035156 273.1875 Z M 88.421875 -23.78125 " clip-rule="nonzero"/></clipPath><clipPath id="id9"><path d="M 88.421875 -23.78125 L 387.464844 99.53125 L 265.007812 396.496094 L -34.035156 273.1875 Z M 88.421875 -23.78125 " clip-rule="nonzero"/></clipPath><clipPath id="id10"><path d="M 48 35 L 331 35 L 331 332 L 48 332 Z M 48 35 " clip-rule="nonzero"/></clipPath><clipPath id="id11"><path d="M 88.421875 -23.78125 L 387.464844 99.53125 L 265.007812 396.496094 L -34.035156 273.1875 Z M 88.421875 -23.78125 " clip-rule="nonzero"/></clipPath><clipPath id="id12"><path d="M 88.421875 -23.78125 L 387.464844 99.53125 L 265.007812 396.496094 L -34.035156 273.1875 Z M 88.421875 -23.78125 " clip-rule="nonzero"/></clipPath><clipPath id="id13"><path d="M 86 88 L 287 88 L 287 289 L 86 289 Z M 86 88 " clip-rule="nonzero"/></clipPath><clipPath id="id14"><path d="M 131.746094 57.851562 L 316.570312 134.0625 L 240.359375 318.886719 L 55.53125 242.675781 Z M 131.746094 57.851562 " clip-rule="nonzero"/></clipPath><clipPath id="id15"><path d="M 0 78 L 372 78 L 372 298 L 0 298 Z M 0 78 " clip-rule="nonzero"/></clipPath><clipPath id="id16"><path d="M 130.863281 -20.605469 L 371.757812 78.730469 L 240.738281 396.460938 L -0.15625 297.128906 Z M 130.863281 -20.605469 " clip-rule="nonzero"/></clipPath><clipPath id="id17"><path d="M 130.863281 -20.605469 L 371.757812 78.730469 L 240.738281 396.460938 L -0.15625 297.128906 Z M 130.863281 -20.605469 " clip-rule="nonzero"/></clipPath></defs><g clip-path="url(#id1)"><g clip-path="url(#id2)"><g clip-path="url(#id3)"><path fill="#00c4cc" d="M 327.746094 243.761719 C 303.1875 303.324219 245.464844 339.902344 180.976562 337.429688 C 115.753906 334.925781 51.753906 293.105469 32.253906 230.9375 C 12.726562 168.695312 38.191406 98.636719 90.542969 59.6875 C 142.6875 20.886719 206.230469 24.78125 264.011719 54.726562 C 330.199219 89.03125 355.722656 175.921875 327.746094 243.761719 " fill-opacity="1" fill-rule="nonzero"/></g></g></g><g clip-path="url(#id4)"><g clip-path="url(#id5)"><g clip-path="url(#id6)"><path fill="#f6f363" d="M 182.796875 206.671875 C 173.511719 206.316406 164.398438 200.359375 161.621094 191.507812 C 158.84375 182.648438 162.46875 172.675781 169.921875 167.128906 C 177.347656 161.605469 186.390625 162.15625 194.617188 166.421875 C 204.042969 171.308594 207.675781 183.675781 203.695312 193.335938 C 200.195312 201.816406 191.976562 207.023438 182.796875 206.671875 Z M 207.71875 145.335938 C 190.136719 136.226562 170.804688 135.042969 154.9375 146.847656 C 139.007812 158.699219 131.261719 180.011719 137.203125 198.949219 C 143.136719 217.867188 162.609375 230.589844 182.453125 231.355469 C 202.074219 232.105469 219.636719 220.976562 227.109375 202.855469 C 235.621094 182.214844 227.855469 155.777344 207.71875 145.335938 " fill-opacity="1" fill-rule="nonzero"/></g></g></g><g clip-path="url(#id7)"><g clip-path="url(#id8)"><g clip-path="url(#id9)"><path fill="#fdff00" d="M 182.878906 200.898438 C 189.617188 201.15625 195.652344 197.335938 198.21875 191.109375 C 201.140625 184.019531 198.472656 174.9375 191.558594 171.351562 C 185.515625 168.222656 178.875 167.816406 173.425781 171.871094 C 167.953125 175.941406 165.292969 183.265625 167.335938 189.769531 C 169.371094 196.265625 176.0625 200.636719 182.878906 200.898438 Z M 155.636719 246.539062 C 152.011719 244.792969 148.8125 242.582031 145.457031 240.390625 C 143.265625 238.964844 141.957031 236.671875 140.402344 240.230469 C 163.222656 259.351562 196.71875 261.023438 221.339844 244.425781 C 219.9375 240.507812 217.546875 243.390625 214.992188 244.824219 C 211.464844 246.804688 207.738281 248.441406 203.902344 249.71875 C 196.296875 252.242188 188.296875 253.320312 180.289062 252.890625 C 171.769531 252.433594 163.324219 250.242188 155.636719 246.539062 Z M 167.644531 126.5 C 174.761719 124.6875 182.207031 124.097656 189.527344 124.777344 C 193.300781 125.125 196.847656 126.191406 200.550781 126.796875 C 203.15625 127.222656 204.832031 128.652344 205.132812 125.066406 C 180.191406 116.625 151.882812 123.839844 134.054688 143.175781 C 136.265625 146.640625 137.6875 143.601562 139.820312 141.628906 C 142.554688 139.09375 145.515625 136.808594 148.652344 134.789062 C 154.484375 131.027344 160.914062 128.210938 167.644531 126.5 Z M 197.269531 262.125 C 192.078125 263.003906 186.773438 263.363281 181.507812 263.148438 C 178.167969 263.015625 171.199219 260.160156 171.59375 265.140625 C 206.433594 270.871094 241.542969 252.351562 256.578125 220.558594 C 252.960938 217.382812 252.027344 223.0625 250.503906 225.640625 C 248.304688 229.363281 245.785156 232.902344 242.996094 236.207031 C 237.46875 242.734375 230.867188 248.285156 223.488281 252.621094 C 215.429688 257.355469 206.488281 260.570312 197.269531 262.125 Z M 130.148438 132.300781 C 136.128906 126.324219 143.109375 121.34375 150.710938 117.632812 C 154.574219 115.746094 158.597656 114.195312 162.722656 112.984375 C 165.675781 112.113281 169.75 112.46875 167.859375 108.597656 C 137.363281 115.042969 112.871094 139.515625 106.414062 169.976562 C 110.644531 172.230469 110.25 166.5625 111.136719 163.710938 C 112.296875 159.984375 113.742188 156.347656 115.457031 152.84375 C 119.175781 145.25 124.164062 138.28125 130.148438 132.300781 Z M 204.515625 275.707031 C 193.976562 277.976562 183.058594 278.292969 172.394531 276.746094 C 166.382812 275.878906 160.496094 274.410156 154.789062 272.347656 C 151.578125 271.1875 144.796875 265.425781 143.710938 270.84375 C 180.425781 289.273438 225.886719 280.882812 253.640625 250.78125 C 250.957031 246.34375 246.570312 253.738281 244.125 255.859375 C 240.34375 259.140625 236.28125 262.117188 232 264.726562 C 223.539062 269.890625 214.207031 273.621094 204.515625 275.707031 Z M 171.105469 99.390625 C 175.789062 98.648438 180.511719 98.273438 185.253906 98.277344 C 188.421875 98.28125 194.878906 100.75 193.925781 95.691406 C 157.789062 92.285156 122.078125 110.972656 104.320312 142.566406 C 107.910156 146.214844 110.203125 138.550781 112.066406 135.9375 C 114.804688 132.09375 117.855469 128.460938 121.167969 125.09375 C 127.707031 118.453125 135.292969 112.839844 143.554688 108.515625 C 152.167969 104.011719 161.503906 100.921875 171.105469 99.390625 Z M 122.011719 92.566406 C 139.230469 81.09375 159.480469 74.410156 180.171875 73.457031 C 192.28125 72.898438 204.523438 74.246094 216.207031 77.476562 C 222.648438 79.253906 228.933594 81.589844 234.964844 84.46875 C 238.1875 86.007812 245.199219 92.546875 246.664062 87.402344 C 210.195312 65.277344 163.402344 64.855469 126.589844 86.203125 C 93.910156 105.15625 71.886719 139.335938 68.371094 176.953125 C 67.671875 184.410156 67.675781 191.941406 68.402344 199.398438 C 73.742188 200.296875 70.796875 188.777344 70.890625 185.0625 C 71.039062 179.351562 71.59375 173.660156 72.582031 168.03125 C 74.398438 157.675781 77.648438 147.578125 82.230469 138.113281 C 91.128906 119.726562 105.007812 103.886719 122.011719 92.566406 Z M 229.976562 297.066406 C 270.277344 280.683594 298.886719 242.394531 302.933594 199.085938 C 298.046875 197.183594 298.960938 206.917969 298.304688 210.269531 C 297.285156 215.457031 295.90625 220.582031 294.179688 225.578125 C 290.5625 236.027344 285.410156 245.9375 278.945312 254.914062 C 266.390625 272.335938 248.949219 286.078125 229.058594 294.210938 C 207.777344 302.910156 184.066406 304.953125 161.574219 300.128906 C 148.484375 297.324219 135.902344 292.21875 124.570312 285.085938 C 119.273438 281.753906 114.25 277.984375 109.566406 273.828125 C 106.855469 271.425781 100.632812 261.761719 97.742188 266.246094 C 130.507812 302.996094 184.398438 315.605469 229.976562 297.066406 Z M 300.40625 249.269531 C 297.828125 254.09375 294.949219 258.765625 291.785156 263.226562 C 286.011719 271.375 279.289062 278.851562 271.796875 285.457031 C 256.9375 298.558594 239.078125 308.167969 219.949219 313.359375 C 199.503906 318.910156 177.773438 319.335938 157.09375 314.710938 C 145.046875 312.011719 133.414062 307.589844 122.621094 301.589844 C 117.414062 298.695312 112.40625 295.441406 107.640625 291.855469 C 105.035156 289.898438 99.3125 282.492188 97.058594 287.023438 C 163.394531 346.363281 271.429688 322.902344 307.308594 241.925781 C 303.40625 238.683594 301.941406 246.382812 300.40625 249.269531 Z M 57.890625 163.777344 C 57.269531 167.0625 58.03125 177.316406 53.230469 175.523438 C 57.347656 131.5 83.804688 91.734375 122.796875 70.894531 C 161.710938 50.101562 209.65625 50.0625 248.59375 71.015625 C 247.472656 76.3125 239.203125 69.652344 236.148438 68.359375 C 230.535156 65.992188 224.753906 64.027344 218.867188 62.46875 C 207.265625 59.398438 195.203125 57.960938 183.203125 58.171875 C 162.664062 58.539062 142.296875 63.855469 124.191406 73.535156 C 106.066406 83.226562 90.335938 97.222656 78.640625 114.113281 C 71.773438 124.03125 66.289062 134.914062 62.433594 146.347656 C 60.511719 152.042969 59.003906 157.871094 57.890625 163.777344 " fill-opacity="1" fill-rule="nonzero"/></g></g></g><g clip-path="url(#id10)"><g clip-path="url(#id11)"><g clip-path="url(#id12)"><path fill="#000000" d="M 49.503906 137.082031 C 49.484375 137.449219 49.589844 137.855469 50.054688 138.128906 L 51.109375 137.902344 C 51.140625 137.855469 51.195312 137.808594 51.292969 137.734375 C 51.421875 137.625 51.582031 137.503906 51.730469 137.304688 C 52.191406 137.988281 53.097656 138.25 53.902344 137.90625 C 54.4375 137.679688 54.867188 137.222656 55.082031 136.664062 L 54.75 135.683594 C 53.355469 134.855469 52.5 135.480469 51.953125 135.925781 L 51.890625 135.710938 C 51.203125 135.011719 49.605469 134.957031 49.164062 135.828125 C 48.972656 136.199219 49.023438 136.703125 49.503906 137.082031 Z M 62.542969 206.910156 C 62.632812 206.960938 62.722656 207.003906 62.808594 207.039062 C 63.410156 207.285156 63.863281 207.179688 64.148438 207.046875 C 64.636719 206.808594 64.984375 206.316406 65.21875 205.539062 L 64.796875 204.59375 C 64.675781 204.535156 64.566406 204.484375 64.460938 204.441406 C 64.023438 204.261719 63.378906 204.066406 62.820312 204.421875 C 62.183594 204.828125 62.152344 205.640625 62.125 206.179688 Z M 80.058594 172.992188 L 80.132812 173.023438 C 80.316406 173.070312 80.730469 173.199219 81.132812 172.957031 C 81.3125 172.84375 81.542969 172.628906 81.621094 172.207031 L 81.144531 171.328125 C 81.296875 171.390625 81.390625 171.558594 81.398438 171.566406 C 81.394531 171.351562 81.386719 170.832031 80.914062 170.488281 L 79.695312 170.785156 C 79.496094 170.914062 79.078125 171.167969 78.9375 171.8125 L 79.414062 172.726562 Z M 49.546875 231.273438 L 50.574219 230.886719 C 50.832031 230.351562 50.769531 229.9375 50.671875 229.683594 C 50.484375 229.207031 50.082031 228.871094 49.320312 228.699219 L 48.398438 229.167969 L 48.128906 229.824219 L 48.566406 230.871094 Z M 58.308594 206.675781 L 59.25 206.121094 C 59.273438 206.035156 59.28125 206.023438 59.425781 205.90625 C 59.628906 205.742188 59.929688 205.496094 60.101562 204.984375 L 59.734375 204.035156 L 59.511719 203.929688 C 59.089844 203.753906 58.742188 203.785156 58.507812 203.816406 C 58.351562 203.828125 58.324219 203.832031 58.253906 203.800781 L 58.246094 203.796875 L 57.160156 204.214844 L 56.894531 204.859375 L 57.273438 205.910156 C 57.378906 206.085938 57.570312 206.402344 58.019531 206.585938 Z M 141.746094 47.660156 L 141.496094 46.476562 C 141.425781 46.339844 141.304688 46.109375 141.039062 45.925781 L 139.886719 46.183594 C 139.753906 46.253906 139.53125 46.367188 139.34375 46.613281 L 139.597656 47.796875 C 139.667969 47.929688 139.785156 48.152344 140.035156 48.339844 L 141.214844 48.082031 C 141.34375 48.015625 141.5625 47.902344 141.746094 47.660156 Z M 74.53125 209.925781 L 75.730469 209.703125 C 76.039062 209.644531 76.855469 209.480469 77 208.355469 L 76.773438 207.683594 C 75.984375 206.882812 74.671875 207.347656 74.203125 208.15625 C 73.839844 208.789062 73.972656 209.5 74.53125 209.925781 Z M 128.511719 70.558594 L 128.914062 69.582031 L 128.726562 69.136719 C 128.917969 68.910156 129.023438 68.605469 129.050781 68.21875 L 127.976562 67.367188 C 127.867188 67.109375 127.6875 66.6875 127.21875 66.492188 C 126.652344 66.257812 126.097656 66.550781 125.914062 66.652344 L 125.917969 68.0625 C 125.964844 68.085938 126.09375 68.15625 126.125 68.1875 C 126.035156 68.105469 125.988281 67.890625 126.019531 67.816406 L 126.472656 68.867188 C 126.289062 69.03125 126.101562 69.277344 126.015625 69.683594 L 126.492188 70.59375 L 127.464844 70.992188 Z M 117.621094 92.523438 C 117.730469 92.257812 117.765625 91.988281 117.726562 91.734375 C 117.667969 91.347656 117.421875 91.019531 117.0625 90.871094 L 116.824219 90.808594 L 116.328125 91.070312 C 116.429688 91.058594 116.542969 91.070312 116.664062 91.121094 L 115.484375 91.476562 L 115.214844 92.125 L 115.296875 92.890625 C 115.464844 93.125 115.667969 93.292969 115.902344 93.390625 C 116.5625 93.664062 117.304688 93.292969 117.621094 92.523438 Z M 70.027344 200.800781 C 70.582031 201.03125 71.296875 200.730469 71.582031 200.152344 C 71.832031 199.660156 71.796875 198.886719 70.871094 198.34375 L 69.773438 198.632812 C 69.410156 199.269531 69.304688 199.761719 69.449219 200.179688 Z M 113.566406 64.191406 C 113.566406 64.1875 113.566406 64.1875 113.566406 64.1875 C 113.765625 63.902344 113.960938 63.527344 113.835938 63.101562 L 113.316406 62.53125 C 113.050781 62.421875 112.792969 62.445312 112.503906 62.503906 C 112.347656 62.542969 112.234375 62.617188 112.144531 62.707031 C 111.71875 62.644531 111.320312 62.851562 111.089844 63.277344 L 111.105469 63.28125 L 111.078125 63.292969 L 111.742188 63.648438 C 111.632812 63.78125 111.5625 63.890625 111.546875 63.917969 L 111.546875 64.023438 L 111.292969 64.273438 C 111.394531 64.375 111.589844 64.636719 111.640625 64.710938 L 111.683594 64.710938 L 111.65625 64.730469 L 111.699219 64.710938 L 111.984375 64.996094 L 112.375 65.054688 L 112.523438 64.707031 L 112.925781 64.703125 C 112.988281 64.640625 113.203125 64.460938 113.277344 64.417969 L 113.148438 64.164062 C 113.199219 64.109375 113.242188 64.054688 113.277344 63.992188 Z M 62.71875 135.480469 C 63.332031 135.734375 64.621094 135.792969 65.011719 135.007812 C 65.082031 134.863281 65.378906 134.128906 64.386719 133.558594 L 63.84375 133.742188 C 63.0625 133.5 62.527344 133.460938 62.15625 133.855469 L 61.996094 134.8125 C 62.082031 135.015625 62.28125 135.300781 62.71875 135.480469 Z M 72.511719 114.449219 C 72.816406 114.183594 73.113281 113.640625 72.824219 112.601562 L 71.855469 112.042969 C 70.644531 112.347656 70.421875 113.007812 70.398438 113.375 C 70.359375 113.914062 70.691406 114.417969 71.226562 114.636719 C 71.679688 114.824219 72.171875 114.753906 72.511719 114.449219 Z M 91.417969 106.585938 C 92.023438 106.832031 92.878906 106.730469 93.214844 106.125 C 93.398438 105.792969 93.542969 105.136719 92.511719 104.398438 L 91.644531 104.367188 C 91.402344 104.503906 90.660156 104.9375 90.714844 105.671875 C 90.742188 106.078125 91.007812 106.414062 91.417969 106.585938 Z M 84.570312 126.832031 C 84.75 126.941406 84.9375 127.035156 85.109375 127.105469 C 85.5 127.269531 85.855469 127.28125 86.164062 127.140625 C 86.367188 127.050781 86.628906 126.855469 86.769531 126.433594 L 86.417969 125.472656 C 86.359375 125.15625 86.136719 124.339844 85.066406 124.210938 L 84.222656 124.714844 C 84.144531 124.925781 84.039062 125.003906 83.785156 125.183594 L 84.214844 126.644531 C 84.328125 126.691406 84.445312 126.769531 84.570312 126.832031 Z M 61.292969 169.144531 C 61.492188 169.226562 61.722656 169.28125 61.988281 169.308594 L 62.808594 168.824219 L 63.347656 167.515625 L 62.910156 166.472656 L 61.929688 166.070312 L 60.921875 166.421875 C 60.585938 167.042969 60.269531 167.710938 60.5 168.355469 C 60.589844 168.597656 60.800781 168.941406 61.292969 169.144531 Z M 209.921875 224.144531 C 209.808594 223.777344 209.410156 223.242188 208.421875 223.070312 L 207.640625 223.382812 C 207.253906 223.898438 207.007812 224.683594 208.15625 225.582031 C 208.15625 225.582031 208.125 225.550781 208.105469 225.484375 L 209.519531 225.703125 C 209.925781 225.136719 210.058594 224.621094 209.921875 224.144531 Z M 227.359375 168.191406 L 227.363281 168.195312 L 227.453125 168.238281 C 227.769531 168.371094 228.105469 168.363281 228.390625 168.21875 C 228.917969 167.960938 229.070312 167.386719 229.203125 166.917969 C 229.242188 166.769531 229.300781 166.558594 229.308594 166.527344 L 229.027344 165.246094 L 228.042969 164.839844 L 227.460938 164.828125 C 226.796875 165.074219 226.386719 165.945312 226.371094 166.644531 C 226.359375 167.355469 226.726562 167.933594 227.359375 168.191406 Z M 212.085938 219.371094 C 211.976562 219.082031 211.71875 218.683594 211.097656 218.425781 L 210.871094 218.34375 L 209.886719 218.804688 L 209.488281 219.773438 L 209.925781 220.820312 L 210.902344 221.222656 L 211.917969 220.851562 C 212.195312 220.3125 212.25 219.820312 212.085938 219.371094 Z M 221.363281 169.5 C 221.21875 168.898438 220.792969 168.382812 220.246094 168.152344 C 219.519531 167.855469 218.769531 168.101562 218.324219 168.773438 L 218.316406 169.636719 C 218.375 169.726562 218.417969 169.867188 218.46875 170.023438 C 218.628906 170.480469 218.871094 171.175781 219.769531 171.546875 L 219.980469 171.628906 L 220.820312 171.398438 C 221.320312 170.835938 221.511719 170.171875 221.363281 169.5 Z M 254.6875 132.355469 L 254.003906 132.296875 C 253.332031 132.546875 252.871094 133.167969 252.859375 133.84375 C 252.851562 134.480469 253.234375 135.019531 253.878906 135.289062 C 253.972656 135.328125 254.082031 135.367188 254.199219 135.390625 L 255.09375 135.011719 C 256.042969 133.324219 255.023438 132.550781 254.6875 132.355469 Z M 196.386719 172.527344 L 197.667969 172.109375 C 197.878906 171.296875 197.867188 170.59375 197.851562 169.917969 L 197.851562 169.675781 L 197.351562 168.953125 L 196.371094 168.546875 L 195.289062 169.085938 C 194.933594 170.46875 195.316406 171.660156 196.386719 172.527344 Z M 174.859375 232.839844 C 175.265625 233.007812 175.742188 232.914062 176.101562 232.582031 C 176.625 232.105469 176.773438 231.289062 176.5 230.394531 L 175.15625 230.066406 C 174.425781 230.820312 174.117188 231.503906 174.238281 232.082031 C 174.3125 232.429688 174.535156 232.707031 174.859375 232.839844 Z M 222.917969 112.300781 C 223.835938 112.679688 224.398438 111.949219 224.621094 111.605469 L 224.671875 110.109375 L 223.691406 109.703125 L 222.648438 110.136719 L 222.246094 111.113281 L 222.503906 112.058594 C 222.644531 112.164062 222.777344 112.246094 222.917969 112.300781 Z M 198.539062 218.828125 C 199.761719 219.335938 200.585938 218.644531 201.074219 218.238281 L 200.777344 216.847656 C 200.09375 216.605469 199.316406 216.328125 198.609375 216.671875 C 198.21875 216.855469 197.933594 217.191406 197.769531 217.664062 L 198.113281 218.613281 C 198.261719 218.703125 198.402344 218.773438 198.539062 218.828125 Z M 244.445312 103.4375 C 244.449219 102.976562 244.167969 102.597656 243.621094 102.300781 L 242.878906 102.292969 C 242.390625 102.539062 240.917969 103.75 240.789062 104.703125 C 240.746094 105.054688 240.863281 105.382812 241.105469 105.605469 L 242.371094 105.351562 C 242.460938 105.234375 242.867188 105.019531 243.105469 104.894531 C 243.738281 104.558594 244.445312 104.179688 244.445312 103.4375 Z M 262.789062 129.726562 C 262.707031 129.949219 262.605469 130.019531 262.363281 130.183594 L 262.617188 131.621094 C 263.140625 131.757812 264.527344 132.109375 265.449219 131.074219 L 265.152344 129.800781 L 263.84375 129.261719 Z M 218.890625 135.722656 L 220.09375 135.339844 C 220.167969 135.203125 220.558594 134.839844 220.742188 134.667969 C 221.21875 134.230469 221.554688 133.921875 221.464844 133.410156 L 220.957031 132.78125 C 220.65625 132.65625 220.359375 132.730469 220.105469 132.808594 L 218.78125 133.40625 C 218.75 133.507812 218.699219 133.621094 218.648438 133.738281 C 218.46875 134.164062 218.042969 135.148438 218.890625 135.722656 Z M 260.03125 216.082031 L 259.660156 214.839844 C 259.46875 214.757812 259.378906 214.65625 259.214844 214.414062 L 257.8125 214.5625 L 257.542969 215.210938 L 257.585938 215.917969 C 257.738281 216.171875 257.980469 216.539062 258.394531 216.710938 C 258.726562 216.847656 259.382812 216.941406 260.03125 216.082031 Z M 298.839844 87.320312 L 297.78125 87.171875 C 296.78125 88.46875 297.582031 89.351562 297.917969 89.726562 C 298 89.8125 298.121094 89.949219 298.128906 90.019531 L 298.085938 90.246094 C 297.953125 91.003906 297.703125 92.421875 299.171875 93.027344 L 300.265625 92.683594 C 300.304688 92.609375 300.335938 92.554688 300.355469 92.519531 L 301.160156 92.34375 C 301.449219 91.859375 301.421875 91.441406 301.3125 91.113281 C 301.519531 91.023438 301.726562 90.933594 301.933594 90.84375 L 301.960938 90.246094 C 301.015625 89.101562 300.050781 87.976562 299.070312 86.871094 L 299.023438 86.890625 C 298.96875 87.117188 298.890625 87.253906 298.839844 87.320312 Z M 230.113281 286.300781 L 231.175781 286.078125 C 231.214844 286.027344 231.28125 285.976562 231.363281 285.90625 C 231.632812 285.691406 232.035156 285.359375 232.183594 284.589844 L 231.699219 283.703125 L 230.71875 283.296875 L 229.710938 283.644531 C 228.804688 285.273438 229.691406 286.042969 230.113281 286.300781 Z M 265.90625 207.691406 L 267.082031 207.445312 C 267.386719 207.390625 268.203125 207.226562 268.347656 206.101562 L 267.945312 205.300781 C 266.769531 204.605469 265.800781 204.824219 265.289062 205.710938 L 265.667969 206.851562 C 265.511719 206.785156 265.417969 206.609375 265.410156 206.597656 C 265.410156 206.824219 265.410156 207.351562 265.90625 207.691406 Z M 226.421875 312.785156 L 225.792969 312.910156 C 225.375 313.203125 225.160156 313.628906 225.210938 314.082031 C 225.265625 314.570312 225.628906 315.011719 226.164062 315.230469 C 226.570312 315.398438 226.992188 315.390625 227.324219 315.207031 C 227.621094 315.054688 227.816406 314.777344 227.878906 314.4375 L 227.445312 313.542969 C 227.34375 313.371094 227.148438 313.054688 226.710938 312.875 Z M 306.710938 117.820312 C 306.617188 117.792969 306.523438 117.761719 306.453125 117.816406 L 305.019531 117.679688 C 304.714844 118.175781 304.636719 118.652344 304.78125 119.097656 C 305 119.753906 305.617188 120.085938 306.191406 120.324219 L 306.960938 120.621094 L 308.015625 120.144531 C 308.417969 118.988281 307.828125 118.175781 306.710938 117.820312 Z M 203.042969 328.539062 C 202.390625 328.816406 201.964844 329.378906 201.972656 329.960938 C 201.972656 330.476562 202.308594 330.917969 202.859375 331.144531 C 203.039062 331.222656 203.253906 331.28125 203.496094 331.3125 L 204.339844 330.851562 C 204.710938 330.035156 204.550781 329.265625 203.898438 328.671875 Z M 288.503906 118.820312 L 288.871094 118.453125 C 289.742188 116.675781 288.441406 115.644531 288.015625 115.304688 L 287.246094 115.179688 C 286.585938 115.417969 286.179688 116.011719 286.160156 116.769531 C 286.140625 117.53125 286.558594 118.519531 287.367188 118.855469 C 287.738281 119.007812 288.140625 118.996094 288.503906 118.820312 Z M 250.710938 178.964844 L 251.273438 178.785156 C 251.21875 178.773438 251.171875 178.761719 251.121094 178.734375 L 252.359375 178.320312 C 252.703125 177.164062 252.191406 176.683594 251.707031 176.484375 C 251.59375 176.4375 251.472656 176.398438 251.339844 176.371094 L 250.421875 176.96875 C 250.40625 177.046875 250.375 177.121094 250.34375 177.203125 C 250.21875 177.546875 249.882812 178.460938 250.710938 178.964844 Z M 207.054688 302.023438 L 206.832031 300.890625 C 207.035156 301.023438 207.113281 301.339844 207.097656 301.40625 C 207.546875 300.597656 207.441406 299.917969 206.789062 299.378906 L 206.402344 299.429688 C 206.265625 299.269531 205.984375 298.984375 205.511719 298.820312 L 204.597656 299.207031 C 203.988281 300.3125 204.324219 301.148438 204.542969 301.699219 C 204.597656 301.84375 204.660156 301.984375 204.695312 302.132812 L 205.957031 302.234375 L 205.960938 302.234375 L 206.214844 302.253906 C 206.148438 302.410156 205.976562 302.503906 205.957031 302.519531 C 206.179688 302.515625 206.703125 302.515625 207.054688 302.023438 Z M 252.175781 195.347656 C 252.097656 196.035156 252.257812 196.75 253.183594 197.128906 L 254.328125 196.664062 C 254.605469 195.90625 255.183594 194.324219 253.53125 193.640625 C 253.53125 193.640625 253.527344 193.640625 253.523438 193.640625 L 252.496094 194.15625 C 252.484375 194.191406 252.472656 194.226562 252.453125 194.273438 C 252.449219 194.246094 252.4375 194.21875 252.425781 194.195312 C 252.316406 193.921875 252.097656 193.707031 251.820312 193.59375 C 251.230469 193.351562 250.492188 193.601562 250.269531 193.683594 C 250.042969 193.78125 249.355469 194.066406 249.359375 194.742188 L 249.988281 195.625 C 250.453125 195.816406 251.601562 195.882812 252.175781 195.347656 Z M 180.777344 314.335938 C 180.972656 314.453125 181.148438 314.539062 181.324219 314.613281 C 182.054688 314.914062 183.132812 315.058594 184.121094 314.035156 L 183.945312 312.785156 C 183.90625 312.765625 183.878906 312.746094 183.851562 312.734375 C 183.976562 312.449219 184.117188 311.972656 183.808594 311.398438 L 182.632812 311.128906 C 182.476562 311.238281 182.34375 311.320312 182.242188 311.378906 C 181.761719 311.667969 181.523438 311.917969 181.40625 312.394531 C 181.269531 312.417969 181.128906 312.460938 180.992188 312.550781 C 180.675781 312.742188 180.476562 313.066406 180.398438 313.507812 Z M 236.484375 216.925781 C 236.914062 217.101562 237.261719 217.070312 237.496094 217.042969 C 237.65625 217.023438 237.675781 216.984375 237.75 217.054688 L 238.808594 216.726562 C 239.09375 216.214844 239.15625 215.722656 239 215.273438 C 238.800781 214.703125 238.285156 214.304688 237.425781 214.054688 L 236.457031 214.519531 L 235.921875 215.820312 L 236.277344 216.828125 Z M 187.660156 171.574219 C 187.898438 171.425781 188.351562 171.160156 188.367188 170.605469 C 188.382812 170.023438 187.894531 169.691406 187.738281 169.578125 L 186.75 169.636719 C 186.675781 169.699219 186.546875 169.777344 186.421875 169.847656 C 186.085938 170.035156 185.574219 170.328125 185.53125 170.9375 C 185.492188 171.589844 186.046875 172.015625 186.261719 172.171875 L 187.542969 171.472656 C 187.550781 171.570312 187.503906 171.664062 187.472656 171.695312 C 187.5 171.667969 187.597656 171.613281 187.660156 171.574219 Z M 165.945312 80.953125 L 165.035156 81.433594 L 164.769531 82.078125 L 165.203125 83.125 L 166.175781 83.527344 L 167.195312 83.148438 C 167.464844 82.617188 167.40625 82.199219 167.3125 81.945312 C 167.191406 81.621094 166.867188 81.160156 165.945312 80.953125 Z M 142.699219 128.910156 L 141.820312 129.382812 L 141.554688 130.039062 L 141.902344 131.042969 C 141.96875 131.175781 142.089844 131.402344 142.339844 131.585938 L 143.628906 131.035156 C 143.773438 130.652344 144.207031 129.476562 143.074219 129.011719 C 142.960938 128.960938 142.835938 128.929688 142.699219 128.910156 Z M 174.863281 65.929688 L 175.164062 67.035156 C 175.304688 67.113281 175.445312 67.183594 175.578125 67.238281 C 176.527344 67.628906 177.367188 67.398438 177.824219 66.628906 L 177.523438 65.523438 C 176.378906 64.886719 175.386719 65.046875 174.863281 65.929688 Z M 116.742188 217.386719 C 116.878906 217.527344 117.042969 217.632812 117.222656 217.707031 C 117.960938 218.011719 118.925781 217.679688 119.277344 216.988281 C 119.566406 216.429688 119.367188 215.792969 118.792969 215.433594 L 117.644531 215.769531 C 117.703125 215.644531 117.84375 215.5625 117.832031 215.558594 C 117.074219 215.59375 116.632812 215.980469 116.523438 216.710938 Z M 110.3125 241.089844 L 111.25 240.925781 C 111.636719 240.628906 112.351562 240.074219 112.273438 239.296875 C 112.246094 239.0625 112.117188 238.625 111.546875 238.347656 L 110.59375 238.53125 C 110.214844 238.828125 109.515625 239.375 109.597656 240.140625 C 109.621094 240.382812 109.746094 240.808594 110.3125 241.089844 Z M 78.691406 229.75 C 78.5625 229.816406 78.335938 229.933594 78.148438 230.1875 L 78.445312 231.40625 C 78.546875 231.574219 78.738281 231.898438 79.1875 232.082031 L 79.460938 232.167969 L 80.371094 231.71875 C 80.628906 231.152344 80.757812 230.3125 79.9375 229.554688 Z M 69.980469 235.871094 L 70.289062 236.042969 C 71.046875 236.355469 72.207031 236.210938 72.71875 235.488281 C 73.003906 235.09375 73.109375 234.433594 72.550781 233.789062 L 72.230469 233.828125 C 72.136719 233.488281 71.964844 233.054688 71.496094 232.859375 L 71.136719 232.785156 L 70.738281 232.871094 C 69.433594 233.542969 69.222656 234.050781 69.671875 235.453125 Z M 170.617188 44.769531 L 171.109375 45.929688 C 171.179688 45.949219 171.253906 45.980469 171.332031 46.011719 L 171.597656 45.367188 L 171.582031 46.113281 C 171.890625 46.242188 172.835938 46.632812 173.40625 45.835938 L 173.492188 45.058594 C 173.472656 45.003906 173.445312 44.953125 173.417969 44.90625 C 173.59375 44.777344 173.769531 44.554688 173.917969 44.199219 C 174.070312 43.824219 174.160156 43.398438 174.15625 43.027344 C 174.152344 42.09375 173.585938 41.757812 173.34375 41.660156 L 172.886719 41.558594 L 172.074219 42.160156 C 171.890625 42.886719 171.804688 43.480469 171.816406 43.949219 C 171.332031 43.984375 170.890625 44.273438 170.617188 44.769531 Z M 71.84375 289.34375 C 72.488281 288.476562 72.089844 287.808594 71.878906 287.46875 C 72.757812 286.707031 74.347656 284.617188 74.285156 282.96875 C 74.261719 282.242188 73.921875 281.644531 73.328125 281.277344 L 72.710938 281.601562 C 72.335938 281.179688 71.511719 280.621094 69.796875 279.914062 C 69.019531 279.59375 68.140625 279.296875 67.621094 279.863281 L 67.441406 280.613281 C 67.542969 281.007812 67.417969 281.382812 67.210938 281.957031 C 67.023438 282.449219 66.824219 283.007812 66.851562 283.628906 C 66.871094 284.125 67.140625 284.527344 67.382812 284.882812 C 67.496094 285.050781 67.683594 285.332031 67.613281 285.5 L 67.664062 286.628906 C 67.757812 286.71875 67.851562 286.808594 67.945312 286.898438 C 68.398438 287.164062 68.816406 287.222656 69.140625 287.164062 C 69.144531 287.527344 69.203125 287.910156 69.351562 288.265625 C 69.800781 288.695312 70.257812 289.121094 70.714844 289.542969 C 70.789062 289.574219 70.867188 289.605469 70.957031 289.632812 Z M 129.355469 126.765625 C 128.957031 126.988281 128.683594 127.34375 128.449219 127.652344 C 128.300781 127.839844 128.136719 128.054688 128.023438 128.117188 L 128.21875 129.589844 C 128.828125 129.734375 129.121094 130.046875 129.238281 130.234375 L 130.617188 130.199219 C 130.71875 130.023438 130.753906 130.015625 130.820312 130 L 131.488281 129.457031 C 131.585938 129.222656 131.574219 129 131.484375 128.773438 C 131.671875 128.378906 131.5625 127.9375 131.5 127.671875 L 131.023438 127.125 L 130.054688 126.722656 Z M 204.066406 106.390625 L 204.722656 106.660156 L 205.492188 106.574219 C 205.910156 106.277344 206.117188 105.851562 206.066406 105.402344 C 205.96875 104.542969 204.71875 103.867188 203.953125 104.269531 C 203.660156 104.429688 203.460938 104.699219 203.398438 105.035156 L 203.648438 105.515625 C 203.632812 105.359375 203.679688 105.242188 203.710938 105.195312 Z M 148.636719 226.699219 L 148.722656 227.460938 C 148.886719 227.699219 149.085938 227.863281 149.320312 227.960938 C 149.984375 228.234375 150.726562 227.855469 151.042969 227.089844 C 151.152344 226.824219 151.191406 226.550781 151.152344 226.296875 C 151.089844 225.898438 150.847656 225.585938 150.480469 225.4375 L 150.257812 225.367188 L 149.765625 225.628906 C 149.863281 225.621094 149.972656 225.632812 150.082031 225.679688 L 148.90625 226.042969 Z M 242.472656 56.3125 C 242.078125 56.441406 241.796875 56.695312 241.570312 56.898438 C 241.46875 56.988281 241.300781 57.140625 241.246094 57.15625 L 241.007812 57.039062 L 239.757812 57.769531 C 239.769531 57.863281 239.617188 58.011719 239.4375 58.171875 C 239.195312 58.390625 238.824219 58.722656 238.898438 59.253906 C 238.933594 59.492188 239.070312 59.820312 239.535156 60.046875 L 240.671875 59.492188 C 240.648438 59.605469 240.503906 59.742188 240.386719 59.761719 C 240.4375 59.753906 240.582031 59.765625 240.679688 59.773438 C 241.035156 59.800781 241.519531 59.84375 241.972656 59.59375 C 242.292969 59.417969 242.4375 59.125 242.53125 58.785156 C 242.992188 58.796875 243.285156 58.511719 243.402344 58.367188 C 243.59375 58.132812 243.679688 57.824219 243.6875 57.535156 C 243.699219 57.570312 243.707031 57.605469 243.71875 57.640625 L 245.113281 57.921875 C 245.046875 58.003906 244.882812 58.042969 244.871094 58.050781 L 246.003906 57.699219 C 246.09375 57.507812 246.15625 57.332031 246.203125 57.171875 L 247.109375 56.828125 C 247.414062 55.445312 246.808594 54.984375 246.214844 54.664062 C 245.972656 54.527344 245.777344 54.421875 245.585938 54.121094 L 244.160156 54.257812 C 243.859375 55.042969 243.554688 56.007812 243.601562 56.9375 C 243.496094 56.65625 243.234375 56.410156 242.929688 56.300781 Z M 216.9375 106.875 L 216.460938 105.960938 L 215.476562 105.554688 L 214.433594 105.988281 L 214.027344 106.96875 L 214.464844 108.015625 L 215.121094 108.285156 L 216.179688 107.890625 C 216.378906 107.773438 216.792969 107.523438 216.9375 106.875 Z M 207.082031 126.289062 L 207.976562 125.847656 C 208.355469 125.023438 208.199219 124.246094 207.53125 123.664062 L 206.3125 123.863281 C 206.175781 123.933594 205.9375 124.054688 205.753906 124.324219 L 206.050781 125.527344 C 206.15625 125.699219 206.347656 126.011719 206.789062 126.195312 Z M 173.832031 143.039062 L 174.089844 143.175781 C 174.929688 143.4375 176.019531 142.527344 176.28125 141.796875 C 176.539062 141.089844 176.214844 140.410156 175.472656 140.105469 L 175.214844 140.015625 L 174.234375 140.617188 C 174.203125 140.664062 174.074219 140.769531 173.988281 140.835938 C 173.699219 141.082031 173.265625 141.445312 173.273438 142.027344 C 173.277344 142.410156 173.464844 142.742188 173.832031 143.039062 Z M 179.09375 122.28125 L 179.726562 123.390625 L 179.992188 123.523438 C 180.117188 123.582031 180.238281 123.644531 180.359375 123.695312 C 180.539062 123.769531 181.101562 124 181.625 123.671875 C 181.976562 123.460938 182.175781 123.074219 182.210938 122.53125 L 181.71875 121.734375 L 180.410156 121.195312 L 179.363281 121.628906 Z M 320.296875 152.785156 L 321.46875 152.296875 C 321.5 152.1875 321.5625 152.066406 321.625 151.941406 C 321.667969 151.863281 321.707031 151.78125 321.746094 151.695312 C 321.753906 151.738281 321.765625 151.78125 321.78125 151.824219 L 322.355469 152.441406 C 322.921875 152.675781 323.621094 152.382812 323.914062 151.796875 C 324.164062 151.300781 324.125 150.53125 323.203125 149.988281 L 322.101562 150.273438 C 322.03125 150.402344 321.96875 150.523438 321.914062 150.636719 C 321.90625 150.589844 321.890625 150.542969 321.875 150.496094 C 321.757812 150.199219 321.386719 149.765625 320.628906 149.71875 L 319.867188 150.132812 C 318.96875 151.785156 319.867188 152.539062 320.296875 152.785156 Z M 325.636719 143.253906 C 325.59375 142.996094 325.425781 142.527344 324.777344 142.242188 L 324.363281 142.179688 C 323.734375 142.25 323.324219 142.664062 323.019531 143.046875 C 322.992188 143.035156 322.964844 143.023438 322.941406 143.007812 L 321.886719 143.390625 C 321.542969 144.105469 321.664062 144.679688 321.75 145.054688 C 321.792969 145.261719 321.816406 145.378906 321.796875 145.5 L 322.023438 146.203125 C 322.171875 146.351562 322.359375 146.476562 322.574219 146.5625 C 323.324219 146.871094 324.402344 146.75 324.746094 146.082031 C 324.890625 145.808594 324.902344 145.453125 324.699219 145.125 C 325.246094 144.597656 325.753906 143.96875 325.636719 143.253906 Z M 290.640625 245.105469 C 290.164062 245.875 290.023438 246.601562 290.226562 247.253906 C 290.527344 248.207031 291.472656 248.714844 292.152344 249.015625 L 292.757812 249.027344 C 293.894531 248.605469 294.828125 248.015625 295.609375 247.246094 L 295.648438 246.148438 C 295.222656 245.675781 294.648438 245.464844 294.136719 245.484375 C 294.074219 245.285156 293.941406 245.09375 293.726562 244.925781 L 292.527344 245.148438 C 292.609375 245.003906 292.792969 244.929688 292.882812 244.941406 C 292.820312 244.941406 292.648438 244.871094 292.535156 244.824219 C 292.101562 244.660156 291.296875 244.347656 290.640625 245.105469 Z M 302.890625 239.859375 L 302.507812 238.605469 C 302.3125 238.527344 302.230469 238.410156 302.070312 238.179688 L 300.667969 238.328125 L 300.398438 238.980469 L 300.445312 239.6875 C 300.597656 239.941406 300.839844 240.308594 301.253906 240.476562 C 301.582031 240.613281 302.230469 240.710938 302.890625 239.859375 Z M 284.515625 218.757812 L 285.335938 218.914062 C 286.007812 218.65625 286.488281 217.933594 286.496094 217.15625 C 286.511719 216.4375 286.125 215.847656 285.335938 215.519531 C 285.328125 215.519531 285.324219 215.515625 285.316406 215.511719 L 284.773438 215.527344 C 284.191406 215.761719 283.816406 216.183594 283.707031 216.75 C 283.558594 217.570312 284.054688 218.339844 284.515625 218.757812 Z M 260.058594 259.019531 C 260.191406 259.09375 260.3125 259.160156 260.433594 259.207031 C 260.917969 259.410156 261.328125 259.394531 261.625 259.382812 C 262 259.375 262.148438 259.40625 262.421875 259.597656 L 263.636719 259.230469 C 264.195312 257.753906 263.507812 257.257812 262.929688 257.121094 C 263.066406 256.136719 262.398438 255.640625 262.140625 255.492188 L 261.027344 255.808594 C 260.863281 256.117188 260.691406 256.261719 260.488281 256.4375 C 260.011719 256.835938 259.59375 257.285156 259.671875 258.386719 Z M 270.128906 246.796875 L 271.265625 246.277344 C 271.574219 245.089844 271.164062 244.140625 270.167969 243.730469 C 269.476562 243.445312 268.628906 243.472656 268.042969 243.554688 L 267.519531 243.855469 C 266.9375 244.585938 267.066406 245.167969 267.125 245.679688 L 267.492188 246.84375 L 267.507812 246.851562 C 268.304688 247.179688 268.929688 246.964844 269.339844 246.824219 C 269.691406 246.703125 269.816406 246.761719 270.128906 246.796875 Z M 280.070312 197.425781 C 280.527344 197.617188 281.011719 197.585938 281.371094 197.339844 C 281.695312 197.125 281.882812 196.753906 281.882812 196.328125 C 281.875 195.765625 281.402344 195.3125 280.933594 195.121094 C 280.371094 194.886719 279.8125 195.007812 279.46875 195.433594 C 279.210938 195.761719 279.125 196.140625 279.222656 196.511719 C 279.324219 196.917969 279.636719 197.25 280.070312 197.425781 Z M 258.640625 250.550781 L 258.699219 250.980469 C 258.902344 251.449219 259.3125 251.84375 259.816406 252.050781 C 260.324219 252.261719 260.890625 252.269531 261.363281 252.082031 L 261.785156 251.691406 C 262.363281 250.53125 261.726562 249.730469 261.273438 249.148438 L 260.824219 249.171875 C 260.816406 249.15625 260.820312 249.144531 260.816406 249.128906 C 260.640625 248.082031 258.769531 247.3125 257.90625 247.929688 C 257.558594 248.183594 257.375 248.59375 257.410156 249.070312 L 258.070312 249.804688 L 258.519531 249.878906 C 258.691406 249.910156 258.761719 249.898438 258.828125 249.945312 C 258.742188 250.105469 258.675781 250.308594 258.640625 250.550781 Z M 319.480469 208.464844 C 319.945312 208.269531 320.265625 207.96875 320.414062 207.601562 L 319.980469 206.554688 L 318.355469 205.882812 L 317.382812 206.183594 C 317.007812 206.746094 316.886719 207.265625 317.027344 207.730469 C 317.140625 208.089844 317.410156 208.375 317.785156 208.527344 C 318.355469 208.761719 319.035156 208.652344 319.480469 208.464844 Z M 296.1875 187.710938 L 296.726562 186.410156 L 296.289062 185.367188 L 295.3125 184.964844 L 294.304688 185.3125 C 293.964844 185.929688 293.652344 186.585938 293.875 187.230469 C 293.964844 187.484375 294.175781 187.828125 294.671875 188.035156 C 294.875 188.117188 295.097656 188.167969 295.367188 188.195312 Z M 302.484375 270.429688 C 302.539062 270.9375 302.609375 271.632812 303.253906 271.898438 C 303.644531 272.058594 304.082031 271.972656 304.554688 271.648438 L 304.753906 270.539062 C 304.722656 270.464844 304.699219 270.234375 304.6875 270.078125 C 304.621094 269.5 304.535156 268.703125 303.828125 268.414062 C 303.414062 268.242188 302.941406 268.332031 302.429688 268.675781 L 302.589844 270.085938 C 302.476562 270.039062 302.417969 269.957031 302.402344 269.9375 C 302.441406 270.011719 302.46875 270.273438 302.484375 270.429688 Z M 310.933594 250.84375 L 310.300781 250.8125 C 309.585938 251.085938 309.042969 251.875 309.03125 252.65625 C 309.023438 253.320312 309.386719 253.871094 310.011719 254.125 C 310.128906 254.175781 310.257812 254.214844 310.40625 254.242188 L 311.285156 253.808594 C 311.609375 253.125 312.367188 251.542969 310.933594 250.84375 Z M 314.742188 231.0625 C 314.378906 231.699219 314.273438 232.195312 314.421875 232.613281 L 314.996094 233.226562 C 315.558594 233.460938 316.257812 233.171875 316.554688 232.578125 C 316.800781 232.085938 316.765625 231.3125 315.847656 230.773438 Z M 305.777344 275.007812 L 305.992188 276.027344 C 305.890625 275.957031 305.851562 275.792969 305.847656 275.777344 L 306.144531 276.878906 C 306.210938 276.914062 306.265625 276.9375 306.328125 276.972656 C 306.875 276.246094 307.421875 275.519531 307.960938 274.78125 C 307.792969 274.660156 307.625 274.558594 307.445312 274.484375 C 306.765625 274.203125 306.109375 274.410156 305.777344 275.007812 Z M 145.042969 265.277344 C 145.457031 265.449219 145.917969 265.433594 146.296875 265.238281 C 146.597656 265.085938 146.988281 264.761719 147.164062 264.054688 L 146.777344 263.164062 C 145.601562 262.503906 144.644531 262.691406 144.121094 263.574219 L 144.066406 264.257812 C 144.238281 264.722656 144.59375 265.09375 145.042969 265.277344 Z M 253.824219 139.25 L 252.945312 139.734375 L 252.679688 140.382812 L 253.015625 141.378906 C 253.085938 141.515625 253.203125 141.742188 253.464844 141.933594 L 254.757812 141.355469 C 255.195312 140.183594 254.832031 139.414062 253.824219 139.25 Z M 237.527344 100.316406 C 237.496094 100.601562 237.394531 101.464844 238.265625 101.828125 L 238.773438 101.914062 C 239.527344 101.824219 239.863281 101.3125 239.921875 100.863281 C 240.03125 100.078125 239.386719 99.191406 238.742188 98.925781 C 238.222656 98.710938 237.691406 98.878906 237.417969 99.335938 L 237.753906 100.46875 C 237.628906 100.402344 237.542969 100.257812 237.527344 100.316406 Z M 261.074219 139.597656 C 261.078125 139.246094 260.925781 138.914062 260.644531 138.660156 L 260.25 138.6875 C 260.199219 138.238281 260.082031 137.609375 259.460938 137.355469 L 259.191406 137.28125 L 258.496094 137.519531 C 258.238281 137.789062 257.902344 137.949219 257.511719 138.140625 C 256.9375 138.417969 256.21875 138.765625 255.699219 139.5625 L 256.433594 140.800781 C 257.683594 140.703125 257.550781 140.644531 258.371094 141.601562 L 259.667969 141.476562 C 259.714844 141.410156 259.910156 141.246094 260.039062 141.140625 C 260.492188 140.753906 261.0625 140.277344 261.074219 139.597656 Z M 187.707031 109.277344 C 188.003906 108.988281 188.089844 108.558594 187.925781 108.164062 C 187.65625 107.519531 186.929688 107.257812 185.757812 107.652344 C 185.535156 107.746094 184.851562 108.035156 184.851562 108.710938 L 185.488281 109.582031 C 185.960938 109.777344 187.140625 109.84375 187.707031 109.277344 Z M 163.109375 217.527344 C 163.089844 217.601562 163.058594 217.675781 163.027344 217.753906 C 162.90625 218.066406 162.539062 219.03125 163.394531 219.539062 L 164.648438 219.203125 C 164.875 219.121094 165.21875 218.984375 165.492188 218.632812 L 165.167969 217.402344 L 164.1875 216.996094 Z M 207.371094 47.714844 C 207.429688 47.503906 207.585938 47.316406 207.757812 47.121094 C 208.007812 46.832031 208.351562 46.429688 208.289062 45.867188 C 208.222656 45.273438 207.71875 44.902344 207.554688 44.78125 L 206.796875 44.671875 C 206.0625 44.945312 205.402344 45.949219 205.386719 46.824219 C 205.378906 47.472656 205.710938 48.003906 206.285156 48.246094 Z M 174.65625 117.8125 C 175.183594 117.921875 176.582031 118.242188 177.003906 116.75 L 176.617188 115.835938 C 175.828125 115.375 175.179688 115.3125 174.644531 115.574219 C 174.214844 115.777344 173.914062 116.167969 173.75 116.734375 L 174.375 117.753906 Z M 236.488281 137.789062 C 236.984375 137.613281 237.492188 137.453125 237.988281 137.292969 C 238.523438 137.121094 239.050781 136.953125 239.578125 136.769531 L 239.578125 135.261719 C 238.582031 134.914062 237.921875 134.800781 236.875 135.089844 L 237 135.542969 C 236.953125 135.542969 236.90625 135.539062 236.855469 135.539062 C 236.261719 135.535156 235.449219 135.527344 235.175781 136.230469 C 234.996094 136.683594 235.167969 137.148438 235.6875 137.625 Z M 190.683594 146.941406 L 191.324219 147.976562 L 191.878906 148.066406 C 192.855469 148.238281 193.867188 148.414062 194.777344 148.015625 L 195.253906 147.210938 C 195.246094 147.074219 195.3125 146.804688 195.375 146.570312 C 195.523438 146.003906 195.722656 145.230469 195.257812 144.589844 L 194.003906 144.535156 C 193.640625 144.953125 193.171875 145.488281 193.039062 146.125 C 192.546875 145.933594 191.964844 145.777344 191.421875 146.039062 C 191.179688 146.152344 190.851562 146.402344 190.683594 146.941406 Z M 271.066406 149.246094 C 271.898438 149.585938 272.882812 149.023438 273.242188 148.300781 C 273.546875 147.683594 273.375 147.023438 272.8125 146.691406 L 271.804688 146.847656 C 271.65625 147.011719 271.488281 147.132812 271.324219 147.261719 C 271.082031 147.441406 270.84375 147.632812 270.621094 147.871094 L 270.691406 149.015625 Z M 260.199219 81.089844 C 260.761719 81.320312 261.457031 81.03125 261.757812 80.441406 C 262 79.945312 261.964844 79.175781 261.050781 78.632812 L 259.945312 78.921875 C 259.582031 79.554688 259.476562 80.046875 259.625 80.46875 Z M 227.285156 178.667969 C 226.554688 178.367188 225.800781 178.644531 225.394531 179.363281 L 225.359375 180.074219 C 225.554688 180.523438 225.914062 180.886719 226.347656 181.0625 C 227.070312 181.359375 227.832031 181.078125 228.230469 180.363281 L 228.269531 179.652344 C 228.074219 179.207031 227.714844 178.847656 227.285156 178.667969 Z M 266.863281 142.753906 C 266.992188 143.070312 267.132812 143.382812 267.308594 143.683594 L 268.683594 143.6875 C 268.597656 143.828125 268.414062 143.898438 268.460938 143.929688 C 268.554688 143.96875 268.65625 144.019531 268.753906 144.066406 L 269.832031 143.679688 C 270 143.316406 270.25 143.140625 270.59375 142.90625 C 271.015625 142.609375 271.539062 142.242188 271.890625 141.480469 L 271.960938 141.195312 C 272.015625 140.324219 271.207031 139.976562 270.769531 139.792969 C 270.742188 139.777344 270.71875 139.765625 270.683594 139.753906 L 270.703125 139.71875 C 270.96875 138.78125 270.40625 138.433594 270.152344 138.328125 L 269.882812 138.253906 L 268.996094 138.75 C 268.867188 139.074219 268.769531 139.132812 267.898438 139.09375 C 267.128906 139.054688 265.964844 139 265.351562 140.210938 L 265.71875 141.296875 C 266.378906 141.609375 266.578125 142.089844 266.863281 142.753906 Z M 243.394531 110.039062 L 244.441406 109.605469 L 244.847656 108.625 L 244.410156 107.582031 L 243.4375 107.179688 L 242.394531 107.613281 L 241.988281 108.59375 L 242.421875 109.640625 Z M 224.765625 183.675781 C 224.628906 183.75 224.402344 183.859375 224.214844 184.117188 L 224.46875 185.285156 C 224.539062 185.414062 224.65625 185.636719 224.910156 185.824219 L 226.082031 185.578125 C 226.21875 185.507812 226.449219 185.390625 226.632812 185.125 L 226.378906 183.976562 C 226.3125 183.839844 226.195312 183.609375 225.9375 183.421875 Z M 209.519531 189.1875 L 209.691406 189.71875 C 209.703125 189.667969 209.722656 189.628906 209.734375 189.605469 L 210.09375 190.796875 L 210.75 191.066406 L 211.804688 190.601562 C 211.882812 190.394531 211.996094 190.308594 212.238281 190.136719 L 212.175781 188.78125 C 210.992188 188.113281 210.039062 188.304688 209.519531 189.1875 Z M 220.90625 163.226562 L 222.046875 162.964844 C 222.1875 162.894531 222.410156 162.777344 222.597656 162.519531 L 222.34375 161.351562 C 222.277344 161.222656 222.160156 161 221.914062 160.816406 L 220.738281 161.0625 C 220.601562 161.128906 220.371094 161.246094 220.183594 161.515625 L 220.441406 162.65625 C 220.507812 162.789062 220.632812 163.039062 220.90625 163.226562 Z M 216.210938 175.730469 C 216.765625 175.960938 217.480469 175.664062 217.769531 175.082031 C 218.015625 174.59375 217.976562 173.824219 217.0625 173.285156 L 215.960938 173.566406 C 215.59375 174.199219 215.492188 174.691406 215.632812 175.113281 Z M 148.101562 45.71875 L 146.726562 45.355469 C 146.398438 45.394531 145.410156 45.519531 145.34375 46.933594 L 146.328125 47.917969 C 146.457031 48.121094 146.671875 48.453125 147.152344 48.648438 L 147.464844 48.75 L 148.398438 48.242188 C 148.734375 47.324219 148.449219 46.625 148.25 46.117188 C 148.195312 45.984375 148.140625 45.855469 148.101562 45.71875 Z M 119.824219 118.703125 C 119.722656 118.40625 119.5 118.179688 119.09375 118.011719 C 119.089844 118.011719 119.082031 118.007812 119.078125 118.007812 L 118.539062 118.011719 C 118 118.222656 117.609375 118.679688 117.464844 119.253906 C 117.308594 119.871094 117.460938 120.558594 117.875 121.046875 L 119.277344 120.601562 C 119.296875 120.53125 119.410156 120.332031 119.480469 120.207031 C 119.71875 119.785156 120.015625 119.257812 119.824219 118.703125 Z M 116.117188 45.53125 C 116.046875 45.628906 115.675781 45.78125 115.457031 45.875 C 114.898438 46.101562 114.203125 46.390625 113.9375 47.078125 C 113.773438 47.496094 113.808594 47.957031 114.035156 48.457031 L 115.246094 48.765625 C 115.648438 48.464844 116.082031 48.242188 116.550781 48.101562 C 116.824219 48.523438 117.25 48.863281 117.671875 49.035156 C 118.507812 49.378906 119.332031 49.105469 119.726562 48.347656 L 119.144531 47.1875 C 118.601562 47.101562 118.472656 46.984375 118.226562 46.460938 C 118.054688 46.101562 117.8125 45.605469 117.246094 45.246094 Z M 76.382812 110.6875 L 76.390625 110.707031 L 76.410156 110.71875 C 76.390625 110.710938 76.398438 110.695312 76.382812 110.6875 Z M 75.269531 112.292969 C 75.25 112.277344 75.433594 112.191406 75.53125 112.035156 C 75.515625 112.023438 75.5 112.019531 75.484375 112.003906 L 74.433594 112.363281 C 73.902344 112.074219 73.820312 111.664062 73.816406 111.445312 C 73.808594 110.832031 74.328125 110.519531 74.710938 110.296875 C 74.808594 110.242188 74.96875 110.148438 75.011719 110.105469 C 75.011719 110.105469 74.953125 110.160156 74.914062 110.28125 L 76.136719 109.847656 C 76.640625 110.1875 76.636719 110.714844 76.640625 110.9375 C 76.632812 110.929688 76.539062 110.832031 76.445312 110.75 C 76.441406 110.773438 76.433594 110.800781 76.425781 110.816406 L 76.753906 111.832031 C 76.328125 112.546875 75.535156 112.355469 75.269531 112.292969 Z M 69.046875 102.972656 C 69.15625 102.707031 69.191406 102.4375 69.15625 102.195312 C 69.097656 101.796875 68.847656 101.472656 68.492188 101.324219 L 68.253906 101.257812 L 67.75 101.515625 C 67.851562 101.507812 67.964844 101.519531 68.082031 101.566406 C 68.085938 101.570312 68.085938 101.570312 68.09375 101.570312 L 66.90625 101.929688 L 66.640625 102.574219 L 66.722656 103.339844 C 66.890625 103.570312 67.089844 103.75 67.324219 103.847656 C 67.988281 104.121094 68.730469 103.742188 69.046875 102.972656 Z M 65.222656 104.75 C 64.988281 104.886719 64.695312 105.152344 64.589844 105.734375 L 65.058594 106.601562 L 65.121094 106.628906 C 65.902344 106.949219 66.644531 106.789062 67.222656 106.167969 L 66.714844 104.804688 C 66.308594 104.65625 65.753906 104.449219 65.222656 104.75 Z M 102.714844 60.445312 C 102.472656 60.832031 102.410156 61.480469 103.03125 62.019531 L 104.273438 61.769531 C 104.214844 61.890625 104.011719 61.902344 104.140625 61.988281 C 104.996094 62.085938 105.523438 61.769531 105.71875 61.050781 L 105.507812 60.277344 C 104.75 59.523438 103.214844 59.636719 102.714844 60.445312 Z M 111.25 55.003906 C 111.578125 54.964844 112.574219 54.839844 112.621094 53.417969 L 112.125 52.652344 L 111.152344 52.25 L 110.078125 52.773438 C 110.046875 52.882812 109.996094 53 109.941406 53.113281 C 109.753906 53.5625 109.359375 54.5 110.167969 55.078125 Z M 72.113281 139.222656 L 73.304688 138.710938 C 73.296875 138.773438 73.230469 138.910156 73.074219 139.003906 C 72.917969 139.097656 72.765625 139.089844 72.71875 139.078125 L 72.953125 139.175781 C 73.179688 139.269531 73.71875 139.488281 74.207031 139.152344 C 74.726562 138.796875 74.707031 138.152344 74.699219 137.941406 L 74.371094 137.3125 L 74.074219 137.148438 C 73.25 136.808594 72.011719 137.179688 71.667969 137.867188 C 71.464844 138.269531 71.519531 138.867188 72.113281 139.222656 Z M 74.90625 125.570312 L 74.507812 124.394531 C 74.648438 124.453125 74.710938 124.535156 74.710938 124.535156 C 74.679688 124.5 74.625 124.367188 74.589844 124.28125 C 74.460938 123.945312 74.273438 123.492188 73.816406 123.300781 C 73.542969 123.1875 73.007812 123.097656 72.445312 123.757812 L 72.554688 124.089844 C 72.261719 124.257812 71.820312 124.570312 71.851562 125.144531 C 71.878906 125.558594 72.148438 125.890625 72.660156 126.109375 L 73.664062 125.714844 C 73.675781 125.726562 73.6875 125.738281 73.699219 125.742188 C 73.601562 125.90625 73.410156 125.996094 73.429688 126.011719 C 73.6875 126.074219 74.46875 126.261719 74.90625 125.570312 Z M 94.3125 72.402344 L 94.476562 73.003906 C 94.625 73.089844 94.765625 73.160156 94.902344 73.214844 C 95.84375 73.605469 96.675781 73.375 97.132812 72.597656 L 96.835938 71.496094 C 96.347656 71.210938 95.910156 71.089844 95.5 71.101562 L 95.339844 70.496094 C 94.171875 69.820312 93.195312 70.019531 92.679688 70.914062 L 92.980469 72.003906 C 93.46875 72.285156 93.910156 72.414062 94.3125 72.402344 Z M 71.804688 136.433594 L 72.996094 135.820312 C 73.324219 135.746094 74.105469 135.566406 74.269531 134.484375 L 73.78125 133.621094 L 72.808594 133.21875 L 71.710938 133.878906 C 71.691406 133.949219 71.582031 134.148438 71.503906 134.277344 C 71.269531 134.691406 70.972656 135.222656 71.160156 135.773438 C 71.265625 136.074219 71.492188 136.304688 71.804688 136.433594 Z M 194.917969 40.902344 C 195.058594 40.828125 195.289062 40.710938 195.476562 40.4375 L 195.21875 39.300781 C 195.152344 39.167969 195.027344 38.925781 194.753906 38.738281 L 193.609375 38.992188 C 193.472656 39.066406 193.238281 39.183594 193.050781 39.453125 L 193.304688 40.597656 C 193.375 40.734375 193.492188 40.960938 193.753906 41.148438 Z M 175.789062 82.65625 L 175.3125 81.75 L 174.65625 81.480469 L 173.660156 81.820312 C 173.523438 81.890625 173.292969 82.007812 173.105469 82.265625 L 172.953125 82.683594 C 172.917969 83.261719 173.316406 83.796875 173.988281 84.074219 C 174.714844 84.371094 175.398438 84.265625 175.730469 83.800781 C 175.84375 83.636719 176.039062 83.25 175.773438 82.722656 C 175.78125 82.699219 175.785156 82.679688 175.789062 82.65625 Z M 155.210938 149.171875 L 154.238281 148.238281 C 154.328125 148.273438 154.40625 148.367188 154.414062 148.335938 C 154.394531 148.027344 154.242188 147.082031 153.175781 146.953125 L 152.398438 147.296875 C 151.65625 148.382812 152.148438 149.15625 152.414062 149.574219 C 152.480469 149.667969 152.566406 149.804688 152.570312 149.855469 L 154.089844 150.117188 C 154.027344 150.246094 153.878906 150.328125 153.894531 150.332031 C 154.664062 150.300781 155.109375 149.902344 155.210938 149.171875 Z M 146.542969 145.800781 L 147.898438 145.671875 C 147.84375 145.796875 147.644531 145.792969 147.769531 145.894531 C 148.625 145.988281 149.152344 145.675781 149.34375 144.953125 L 149.027344 144.09375 C 149.003906 144.070312 148.960938 143.960938 148.933594 143.890625 C 148.78125 143.492188 148.390625 142.769531 147.308594 142.625 L 146.484375 143.070312 C 145.839844 144.417969 146.160156 145.292969 146.542969 145.800781 Z M 177.160156 71.898438 L 176.628906 72.074219 C 175.980469 72.589844 175.953125 73.179688 176 73.484375 C 176.078125 74.035156 176.492188 74.527344 177.078125 74.765625 C 177.78125 75.058594 178.488281 74.878906 178.84375 74.320312 L 178.75 73.285156 C 178.703125 72.925781 178.46875 71.949219 177.160156 71.898438 Z M 148.152344 177.351562 L 147.683594 177.035156 C 146.457031 176.53125 145.78125 177.589844 145.496094 178.039062 L 145.339844 178.28125 L 145.960938 179.636719 C 146.0625 179.75 146.203125 179.914062 146.433594 180.007812 C 146.585938 180.074219 147.128906 180.226562 147.601562 179.652344 L 147.570312 179.34375 C 147.871094 179.226562 148.296875 179.019531 148.441406 178.523438 C 148.554688 178.140625 148.457031 177.746094 148.152344 177.351562 Z M 197.046875 36.496094 C 197.207031 36.5625 197.390625 36.609375 197.597656 36.628906 L 198.183594 35.863281 C 197.566406 35.765625 196.953125 35.671875 196.335938 35.578125 C 196.347656 35.660156 196.34375 35.738281 196.375 35.824219 C 196.484375 36.125 196.726562 36.363281 197.046875 36.496094 Z M 189.371094 58.59375 C 189.714844 58.734375 190.078125 58.804688 190.453125 58.796875 L 191.171875 58.328125 C 191.757812 57.03125 191.855469 55.980469 191.464844 55.125 L 190.007812 55.105469 C 190.085938 54.945312 190.304688 54.859375 190.320312 54.847656 C 190.183594 54.792969 190.035156 54.707031 189.878906 54.621094 C 189.453125 54.386719 189.042969 54.199219 188.699219 54.167969 L 187.890625 54.679688 C 187.273438 56.308594 187.910156 57.992188 189.371094 58.59375 Z M 167.804688 38.636719 L 168.105469 39.742188 C 168.25 39.824219 168.390625 39.890625 168.523438 39.949219 C 169.472656 40.339844 170.308594 40.109375 170.765625 39.332031 L 170.46875 38.230469 C 169.304688 37.5625 168.324219 37.742188 167.804688 38.636719 Z M 139.808594 117.5625 C 139.773438 117.332031 139.640625 116.992188 139.175781 116.765625 L 138.289062 116.867188 C 137.757812 117.175781 136.957031 117.636719 136.921875 118.46875 C 136.914062 118.808594 137.03125 119.308594 137.6875 119.769531 L 138.949219 119.039062 C 138.9375 118.9375 139.117188 118.777344 139.265625 118.648438 C 139.511719 118.425781 139.878906 118.089844 139.808594 117.5625 Z M 143.140625 109.582031 C 142.84375 108.527344 141.699219 107.722656 139.953125 107.179688 L 139.019531 107.527344 C 138.625 108.183594 138.515625 108.773438 138.683594 109.28125 C 138.785156 109.578125 139.035156 110 139.652344 110.257812 C 140.210938 110.488281 140.917969 110.519531 141.535156 110.496094 C 141.898438 110.847656 142.628906 110.921875 143.050781 110.214844 Z M 158.0625 63.1875 L 158.355469 64.289062 C 158.507812 64.375 158.652344 64.453125 158.796875 64.511719 C 159.730469 64.894531 160.566406 64.660156 161.015625 63.890625 L 160.71875 62.789062 C 159.558594 62.117188 158.582031 62.308594 158.0625 63.1875 Z M 159.570312 55.820312 C 159.203125 56.453125 159.105469 56.949219 159.25 57.367188 L 159.828125 57.984375 C 160.382812 58.214844 161.097656 57.921875 161.386719 57.339844 C 161.628906 56.84375 161.589844 56.074219 160.671875 55.53125 Z M 301.394531 258.964844 C 301.320312 258.902344 301.25 258.832031 301.195312 258.753906 L 299.851562 258.851562 C 299.457031 259.566406 299.359375 260.160156 299.542969 260.675781 C 299.644531 260.96875 299.890625 261.367188 300.488281 261.613281 C 300.574219 261.648438 300.671875 261.675781 300.773438 261.703125 L 301.621094 261.433594 C 302.625 260.144531 301.730469 259.289062 301.394531 258.964844 Z M 328.511719 198.457031 L 329.464844 198.390625 C 329.558594 198.304688 329.6875 198.246094 329.796875 198.183594 C 330.132812 197.988281 330.648438 197.699219 330.6875 197.085938 C 330.734375 196.4375 330.171875 196.007812 329.964844 195.851562 L 328.835938 195.996094 C 328.78125 196.074219 328.722656 196.125 328.675781 196.171875 C 328.449219 196.382812 328.25 196.628906 328.210938 196.992188 C 328.164062 197.042969 328.117188 197.105469 328.085938 197.171875 C 327.894531 197.542969 327.945312 198.101562 328.511719 198.457031 Z M 314.339844 190.433594 L 314.636719 191.640625 C 314.746094 191.808594 314.9375 192.128906 315.382812 192.3125 L 315.664062 192.402344 L 316.617188 191.820312 C 316.632812 191.746094 316.664062 191.671875 316.695312 191.597656 C 316.8125 191.277344 317.171875 190.332031 316.328125 189.824219 L 315.1875 190.183594 C 315.25 190.039062 315.414062 189.945312 315.429688 189.941406 C 315.203125 189.941406 314.675781 189.941406 314.339844 190.433594 Z M 281.183594 266.175781 L 281.414062 267.019531 C 281.574219 267.167969 281.695312 267.332031 281.820312 267.496094 C 282.003906 267.746094 282.195312 267.984375 282.4375 268.207031 L 283.566406 268.152344 C 284.449219 267.191406 284.816406 266.320312 284.664062 265.570312 C 284.582031 265.191406 284.335938 264.671875 283.597656 264.332031 L 282.609375 264.597656 C 282.542969 264.695312 282.441406 264.761719 282.265625 264.875 C 281.9375 265.09375 281.4375 265.40625 281.183594 266.175781 Z M 301.390625 221.972656 C 301.28125 222.492188 301.011719 223.722656 302.234375 224.226562 L 302.460938 224.304688 L 303.421875 223.835938 L 303.957031 222.539062 L 303.523438 221.492188 L 302.542969 221.089844 L 301.449219 221.691406 Z M 306.386719 216.296875 C 306.371094 216.035156 306.25 215.117188 305.230469 214.988281 L 304.558594 215.207031 C 304.203125 215.554688 304.054688 216.050781 304.160156 216.582031 C 304.257812 217.125 304.609375 217.59375 305.054688 217.777344 C 305.503906 217.960938 306.128906 217.867188 306.507812 217.242188 L 306.167969 216.097656 C 306.292969 216.164062 306.371094 216.289062 306.382812 216.296875 Z M 306.351562 165.4375 C 306.523438 165.019531 306.484375 164.53125 306.25 164.082031 C 306.023438 163.652344 305.644531 163.304688 305.167969 163.109375 L 304.851562 163.871094 C 304.824219 163.859375 304.816406 163.835938 304.785156 163.824219 C 304.605469 164.257812 304.425781 164.699219 304.25 165.125 C 304.429688 165.234375 304.519531 165.195312 304.664062 165.25 L 304.328125 166.0625 C 305.363281 166.492188 306.101562 166.039062 306.351562 165.4375 Z M 289.839844 87.453125 L 288.710938 87.804688 C 288.171875 88.960938 289.066406 89.660156 289.445312 89.957031 C 289.554688 90.042969 289.710938 90.167969 289.75 90.226562 C 289.746094 90.222656 289.734375 90.195312 289.730469 90.15625 L 291.191406 90.574219 C 291.9375 89.484375 291.445312 88.707031 291.179688 88.289062 C 291.113281 88.1875 291.027344 88.054688 291.023438 88 L 289.601562 87.585938 C 289.667969 87.503906 289.828125 87.460938 289.839844 87.453125 Z M 290.816406 195.726562 C 291.128906 195.023438 290.882812 194.292969 290.203125 193.902344 L 289.171875 194.109375 C 289.078125 194.230469 288.945312 194.320312 288.78125 194.429688 C 288.371094 194.71875 287.8125 195.101562 287.566406 196.097656 L 288.097656 197.046875 C 289.144531 197.394531 290.421875 196.621094 290.816406 195.726562 Z M 272.550781 286.652344 C 272.941406 285.945312 273.042969 285.347656 272.859375 284.832031 C 272.757812 284.53125 272.507812 284.125 271.898438 283.875 L 271.632812 283.785156 L 270.695312 284.195312 C 270.113281 285.363281 270.757812 286.167969 271.105469 286.605469 L 271.851562 286.261719 L 271.214844 286.742188 Z M 267.113281 240.308594 C 267.246094 240.359375 267.484375 240.4375 267.757812 240.464844 L 267.265625 240.71875 C 266.914062 242.441406 267.855469 242.976562 268.15625 243.101562 C 268.855469 243.390625 269.65625 243.085938 269.933594 242.429688 C 270.058594 242.121094 270.324219 241.105469 268.613281 240.261719 C 268.832031 240.109375 268.988281 239.882812 269.042969 239.613281 L 268.722656 238.792969 C 268.679688 238.757812 268.625 238.699219 268.558594 238.617188 C 268.347656 238.355469 267.953125 237.917969 267.238281 237.789062 L 266.597656 237.945312 C 266.199219 238.253906 266 238.683594 266.058594 239.121094 C 266.128906 239.617188 266.519531 240.0625 267.113281 240.304688 Z M 280.140625 268.246094 L 279.675781 267.285156 L 278.695312 266.882812 L 277.652344 267.316406 L 277.113281 268.621094 L 277.46875 269.628906 L 277.726562 269.75 C 278.332031 270 278.796875 269.890625 279.078125 269.757812 C 279.574219 269.515625 279.921875 269.019531 280.140625 268.246094 Z M 329.542969 142.40625 L 329.957031 143.441406 L 329.984375 143.453125 C 329.863281 143.042969 329.742188 142.632812 329.617188 142.222656 Z M 316.363281 173.082031 C 315.398438 172.503906 314.738281 172.640625 314.367188 172.828125 C 313.867188 173.078125 313.519531 173.589844 313.335938 174.328125 L 313.867188 175.285156 C 314.230469 175.410156 315.355469 175.769531 316.214844 175.015625 L 316.191406 174.59375 C 316.355469 174.511719 316.511719 174.386719 316.632812 174.179688 Z M 279.441406 263.375 C 279.226562 263.285156 278.652344 263.144531 278.058594 263.71875 L 278.304688 265.03125 C 278.121094 264.9375 278.019531 264.683594 277.996094 264.738281 C 277.933594 264.996094 277.742188 265.785156 278.453125 266.21875 L 278.925781 266.339844 C 279.609375 266.292969 280.125 265.804688 280.242188 265.097656 C 280.351562 264.453125 280.109375 263.648438 279.441406 263.375 Z M 278.421875 281.410156 C 278.410156 281.199219 278.304688 280.808594 277.757812 280.585938 L 277.378906 280.484375 C 276.582031 280.4375 276.046875 281.175781 275.882812 281.878906 C 275.695312 282.714844 276.058594 283.191406 276.464844 283.359375 C 276.753906 283.476562 277.222656 283.507812 277.800781 282.988281 L 277.691406 282.441406 C 277.695312 282.445312 277.707031 282.441406 277.726562 282.429688 C 277.984375 282.28125 278.464844 281.996094 278.421875 281.410156 Z M 286.625 237.027344 L 285.710938 237.609375 C 285.691406 237.691406 285.660156 237.765625 285.632812 237.839844 C 285.511719 238.15625 285.152344 239.117188 286.011719 239.613281 L 286.558594 239.4375 C 286.507812 239.433594 286.449219 239.457031 286.40625 239.390625 L 287.632812 238.976562 C 288.082031 237.558594 287.355469 237.164062 286.625 237.027344 Z M 297.738281 128.355469 C 298.058594 127.914062 298.164062 127.410156 298.03125 126.9375 C 297.753906 125.96875 296.347656 125.378906 295.464844 125.878906 C 295.039062 126.121094 294.753906 126.550781 294.671875 127.085938 L 295.332031 128 L 295.777344 128.070312 C 296.070312 128.113281 296.070312 128.125 296.261719 128.269531 L 296.628906 128.535156 Z M 188.863281 295.128906 L 189.582031 294.988281 C 189.703125 295.117188 189.863281 295.253906 190.101562 295.351562 L 190.359375 295.4375 L 191.292969 294.960938 L 191.828125 293.65625 L 191.539062 292.691406 L 191.246094 292.53125 C 190.339844 292.15625 189.261719 292.699219 188.78125 293.414062 C 188.386719 294 188.417969 294.675781 188.863281 295.128906 Z M 284.789062 93.652344 C 284.757812 93.828125 284.699219 94.015625 284.644531 94.203125 C 284.441406 94.882812 284.019531 96.304688 285.4375 96.890625 L 285.457031 96.898438 L 286.535156 96.328125 C 286.78125 95.230469 286.699219 94.257812 286.296875 93.445312 Z M 284.597656 89.910156 L 283.824219 90.414062 C 283.734375 90.636719 283.621094 90.730469 283.378906 90.894531 L 283.808594 92.367188 C 283.921875 92.414062 284.046875 92.484375 284.167969 92.550781 C 284.351562 92.65625 284.535156 92.757812 284.699219 92.824219 C 285.097656 92.988281 285.453125 93 285.765625 92.855469 C 285.960938 92.761719 286.230469 92.566406 286.359375 92.144531 L 286.179688 91.292969 C 286.140625 90.9375 285.921875 89.980469 284.597656 89.910156 Z M 144.710938 182.78125 C 144.796875 182.566406 144.890625 182.347656 144.980469 182.125 C 144.824219 180.796875 142.988281 182.457031 144.710938 182.78125 Z M 67.378906 193.570312 C 67.199219 193.433594 67.082031 193.46875 66.925781 193.417969 L 67.273438 192.59375 C 66.289062 192.1875 65.488281 192.660156 65.207031 193.339844 C 65.050781 193.710938 65.050781 194.152344 65.214844 194.539062 C 65.394531 194.96875 65.753906 195.3125 66.230469 195.511719 L 66.484375 194.648438 C 66.609375 194.71875 66.660156 194.828125 66.84375 194.863281 C 67.023438 194.429688 67.203125 193.996094 67.378906 193.570312 Z M 107.765625 54 C 107.855469 53.78125 107.941406 53.566406 108.03125 53.355469 C 107.875 52.019531 106.035156 53.667969 107.765625 54 Z M 223.882812 164.75 C 223.730469 163.421875 221.890625 165.078125 223.613281 165.402344 C 223.699219 165.1875 223.789062 164.96875 223.882812 164.75 Z M 143.722656 185.042969 C 143.878906 184.664062 144.179688 184.351562 144.542969 184.207031 C 144.921875 184.050781 145.351562 184.050781 145.75 184.21875 L 145.417969 185.027344 C 145.503906 185.0625 145.574219 185.015625 145.667969 185.082031 C 145.945312 185.953125 145.476562 185.484375 145.132812 186.382812 C 145.019531 186.363281 145.003906 186.289062 144.921875 186.242188 L 144.585938 187.050781 C 143.765625 186.710938 143.394531 185.847656 143.722656 185.042969 " fill-opacity="1" fill-rule="nonzero"/></g></g></g><g clip-path="url(#id13)"><g clip-path="url(#id14)"><path fill="#fdff00" d="M 224.160156 95.957031 C 173.121094 74.910156 114.683594 99.222656 93.640625 150.261719 C 72.59375 201.300781 96.90625 259.734375 147.945312 280.78125 C 198.984375 301.828125 257.417969 277.515625 278.464844 226.476562 C 299.511719 175.4375 275.195312 117.003906 224.160156 95.957031 " fill-opacity="1" fill-rule="nonzero"/></g></g><g clip-path="url(#id15)"><g clip-path="url(#id16)"><g clip-path="url(#id17)"><path fill="#000000" d="M 371.75 78.746094 L 136.566406 149.199219 L 179.339844 167.890625 L 85.515625 209.230469 L 123.425781 226.96875 L -0.148438 297.109375 L 235.933594 227.027344 L 193.003906 206.167969 L 291.320312 166.679688 L 252.882812 147.671875 Z M 371.75 78.746094 " fill-opacity="1" fill-rule="nonzero"/></g></g></g></svg>